<svg xmlns="http://www.w3.org/2000/svg" viewBox="0 0 837.64 837.64">
    <path
        d="M837.64,837.64H0V0H837.64ZM419.28,309.87c-6.77-5-13.33-10.41-20.42-15C377,280.64,352.82,273,327,270.61c-22.94-2.16-45.57-.53-67.76,5.88-28.88,8.35-53.49,23.54-72.87,46.67C163,351,152,383.54,151.62,419.58c-.39,35.17-.24,70.35,0,105.52.11,16.8,7.71,29.64,22.5,37.83,10.88,6,22.61,7.06,34.7,4.87,21.49-3.9,36.12-21.46,36.12-43.28V420a81.26,81.26,0,0,1,4.26-26.2c5.41-16,14.91-28.8,30.25-36.62,11.38-5.79,23.55-7.43,36.16-6.29,14.15,1.29,26.62,6.47,36.7,16.59,13.76,13.83,19.83,31.1,20.05,50.17.41,36.07,0,72.14.17,108.22C372.6,541,379.29,553,392,561.22c11.73,7.63,24.69,9.07,38.25,6.56a43,43,0,0,0,35.6-41.51c.29-16.41.11-32.83.12-49.24,0-18.69.09-37.38,0-56.07a82.94,82.94,0,0,1,3.42-24.88c5-16.46,14.22-29.77,29.61-38.16,11.62-6.33,24.17-8.19,37.22-7,19.57,1.77,35,10.71,45.6,27.32,8.31,13,11.64,27.44,11.67,42.68.09,34.55-.08,69.1,0,103.66,0,17.47,7.86,30.55,23.27,38.79,9.87,5.29,20.54,6.28,31.54,4.87,22.45-2.89,38.41-21,38.41-43.58q0-51.82,0-103.66a144.84,144.84,0,0,0-4.26-36.66c-15-58-52.08-94.27-109.75-109.48-23.48-6.19-47.42-6.59-71.4-3-23.44,3.53-45.19,11.54-64.8,24.94C430.44,300.91,424.84,305.62,419.28,309.87Z" />
</svg>